<svg xmlns="http://www.w3.org/2000/svg" width="16" height="16" class="" viewBox="0 0 14 17"><g fill="none" fill-rule="evenodd"><path fill="#2874F0" fill-rule="nonzero" d="M12.25.542H1.75c-.833 0-1.5.675-1.5 1.5v10.5c0 .825.667 1.5 1.5 1.5h3L7 16.292l2.25-2.25h3c.825 0 1.5-.675 1.5-1.5v-10.5c0-.825-.675-1.5-1.5-1.5zm-4.5 12h-1.5v-1.5h1.5v1.5zM9.303 6.73l-.676.69c-.54.547-.877.997-.877 2.122h-1.5v-.375c0-.825.338-1.575.877-2.123l.93-.945c.278-.27.443-.646.443-1.058 0-.825-.675-1.5-1.5-1.5s-1.5.675-1.5 1.5H4c0-1.658 1.342-3 3-3s3 1.342 3 3c0 .66-.27 1.26-.697 1.687z"></path></g></svg>