<svg xmlns="http://www.w3.org/2000/svg" width="16" height="12" class="" viewBox="0 0 16 16"><g fill="none" fill-rule="evenodd"><path fill="#FFF" d="M0 0h16v16H0z"></path><path fill="#2874F0" d="M16 9.25v2.5c0 .69-.597 1.25-1.333 1.25H1.333C.597 13 0 12.44 0 11.75v-2.5c.736 0 1.333-.56 1.333-1.25S.736 6.75 0 6.75v-2.5C0 3.56.597 3 1.333 3h13.334C15.403 3 16 3.56 16 4.25v2.5c-.736 0-1.333.56-1.333 1.25S15.264 9.25 16 9.25zM4.4 3.625v1.25h.533v-1.25H4.4zm0 2.5v1.25h.533v-1.25H4.4zm0 2.5v1.25h.533v-1.25H4.4zm0 2.5v1.25h.533v-1.25H4.4z"></path></g></svg>